<svg xmlns="http://www.w3.org/2000/svg" viewBox="0 0 88 88" width="88" height="88">
  <circle cx="44" cy="44" r="44" fill="#1a1a2e"/>
  <path d="M34 46 Q32 32 44 26 Q56 32 54 46 L52 54 L36 54 Z" fill="#9b59b6"/>
  <rect x="36" y="54" width="16" height="4" rx="1" fill="#7d3c98"/>
  <rect x="38" y="58" width="12" height="4" rx="1" fill="#6c3483"/>
  <line x1="58" y1="26" x2="63" y2="21" stroke="#9b59b6" stroke-width="1.5" stroke-linecap="round"/>
  <line x1="60" y1="36" x2="66" y2="36" stroke="#9b59b6" stroke-width="1.5" stroke-linecap="round"/>
  <line x1="30" y1="26" x2="25" y2="21" stroke="#9b59b6" stroke-width="1.5" stroke-linecap="round"/>
  <line x1="28" y1="36" x2="22" y2="36" stroke="#9b59b6" stroke-width="1.5" stroke-linecap="round"/>
  <circle cx="40" cy="40" r="2.5" fill="#fff" opacity="0.9"/>
  <circle cx="48" cy="40" r="2.5" fill="#fff" opacity="0.9"/>
  <circle cx="44" cy="33" r="2.5" fill="#fff" opacity="0.9"/>
  <line x1="40" y1="40" x2="44" y2="33" stroke="#fff" stroke-width="1.2" opacity="0.7"/>
  <line x1="48" y1="40" x2="44" y2="33" stroke="#fff" stroke-width="1.2" opacity="0.7"/>
  <line x1="40" y1="40" x2="48" y2="40" stroke="#fff" stroke-width="1.2" opacity="0.7"/>
</svg>
